# xmcd
#
# Track frame offsets:
#	182
#	10982
#	21422
#	30282
#	40890
#	53965
#	63605
#	75615
#	87227
#	99520
#	110232
#	121752
#	132545
#
# Disc length: 1885 seconds
#
# Revision: 0
# Processed by: cddbd v1.4PL0 Copyright (c) Steve Scherf et al.
# Submitted via: dBpowerAMP V4.0
#
DISCID=ab075b0d
DTITLE=The Highway Qc's - Somewhere To Lay My Head
DYEAR=1900
DGENRE=Gospel
TTITLE0=Somewhere To Lay My Head
TTITLE1=He Said Oh Lord
TTITLE2=I Pray
TTITLE3=Jesus I'm Waiting
TTITLE4=Something On My Mind
TTITLE5=Do You Love Him
TTITLE6=I Used To Wonder
TTITLE7=Don't Worry About Me
TTITLE8=Nearer To Thee
TTITLE9=All Men Are Made By God
TTITLE10=I'll Trust In His Word
TTITLE11=I Don't Want To Be Lost
TTITLE12=Where He Leads Me
EXTD=
EXTT0=
EXTT1=
EXTT2=
EXTT3=
EXTT4=
EXTT5=
EXTT6=
EXTT7=
EXTT8=
EXTT9=
EXTT10=
EXTT11=
EXTT12=
PLAYORDER=
